<?xml version="1.0" encoding="utf-8"?>
<!-- Generator: Adobe Illustrator 26.3.1, SVG Export Plug-In . SVG Version: 6.00 Build 0)  -->
<svg version="1.1" id="Layer_1" xmlns="http://www.w3.org/2000/svg" xmlns:xlink="http://www.w3.org/1999/xlink" x="0px" y="0px"
	 viewBox="0 0 138 48" style="enable-background:new 0 0 138 48;" xml:space="preserve">
<style type="text/css">
	.st0{fill:#64748B;}
</style>
<path class="st0" d="M49.2,36.4c0-0.1,0-0.2,0-0.3c0-6.2,0-12.3,0-18.5c0-0.2,0-0.3,0.3-0.3c1,0,1.9,0,2.9,0c0.2,0,0.3,0,0.3,0.3
	c0,0.6,0,1.1,0,1.7c0.1,0,0.1-0.1,0.2-0.2c0.6-1,1.5-1.7,2.7-2c2.5-0.5,4.9,0.6,6,3c0.7,1.5,0.9,3,0.8,4.7c-0.1,1.3-0.4,2.6-1,3.8
	c-1.5,2.9-4.5,3.3-6.6,2.6c-0.8-0.3-1.4-0.8-1.9-1.5c-0.1-0.1-0.1-0.2-0.2-0.3c-0.1,0.1,0,0.2,0,0.3c0,2.2,0,4.4,0,6.5
	c0,0.1,0,0.2,0,0.3C51.6,36.4,50.4,36.4,49.2,36.4z M58.8,24.4c0-0.9-0.1-1.6-0.3-2.3c-0.3-0.8-0.8-1.5-1.7-1.8
	c-1.3-0.4-3.1-0.2-3.8,1.9c-0.3,1-0.3,2-0.3,3c0.1,0.7,0.2,1.3,0.6,1.9c0.6,1,1.5,1.4,2.7,1.4c1.1,0,1.8-0.6,2.2-1.5
	C58.6,26.1,58.8,25.2,58.8,24.4z"/>
<path class="st0" d="M131.7,31.1c-1.1,0-2.2,0-3.4,0c-0.1,0-0.2,0-0.2-0.2c0,0,0-0.1,0-0.1c0-6,0-12,0-18c0-0.3,0.1-0.3,0.3-0.3
	c1.1,0,2.2,0,3.2,0C131.7,18.8,131.7,24.9,131.7,31.1z"/>
<path class="st0" d="M29.2,19.3c0.9-1.5,2.1-2.3,3.9-2.4c1.8,0,3.1,0.6,3.9,2.2c0.2-0.3,0.4-0.5,0.5-0.7c1-1.2,2.3-1.7,3.8-1.5
	c1,0.1,1.9,0.4,2.7,1c1,0.8,1.5,1.9,1.5,3.2c0,1.4,0,2.8,0,4.2c0,1.8,0,3.6,0,5.4c0,0.2,0,0.3-0.3,0.3c-1.1,0-2.1,0-3.2,0
	c-0.2,0-0.3-0.1-0.3-0.3c0-2.6,0-5.3,0-7.9c0-0.5,0-0.9-0.1-1.4c-0.3-1.1-1.1-1.6-2.2-1.4c-1.5,0.2-2,1.2-2.1,2.3c0,0.3,0,0.6,0,0.9
	c0,2.5,0,5,0,7.6c0,0.3-0.1,0.3-0.3,0.3c-1,0-2,0-3,0c-0.4,0-0.3,0.1-0.3-0.3c0-2.6,0-5.2,0-7.9c0-0.4,0-0.9-0.1-1.3
	c-0.2-1-0.7-1.5-1.7-1.6c-0.4-0.1-0.7,0-1.1,0c-0.9,0.2-1.4,0.8-1.6,1.8c-0.1,0.4-0.1,0.7-0.1,1.1c0,2.6,0,5.3,0,7.9
	c0,0.2-0.1,0.3-0.3,0.3c-1,0-2.1,0-3.1,0c-0.2,0-0.2-0.1-0.2-0.2c0-4.4,0-8.9,0-13.3c0-0.2,0-0.2,0.2-0.2c1,0,2,0,3,0
	c0.2,0,0.2,0,0.2,0.2C29.2,18.2,29.2,18.7,29.2,19.3z"/>
<path class="st0" d="M5.8,31.1c0.2-0.7,0.5-1.3,0.7-2c1.9-5.4,3.9-10.9,5.8-16.3c0.1-0.2,0.1-0.3,0.4-0.3c1.3,0,2.7,0,4,0
	c0.2,0,0.3,0.1,0.3,0.2c2.1,6,4.3,12.1,6.4,18.1c0.1,0.3,0.1,0.3-0.2,0.3c-1.3,0-2.5,0-3.8,0c-0.2,0-0.2,0-0.3-0.2
	c-0.3-1.1-0.7-2.3-1.1-3.4c0-0.1-0.1-0.2-0.3-0.2c-2.2,0-4.3,0-6.5,0c-0.2,0-0.2,0.1-0.3,0.2c-0.4,1.1-0.8,2.3-1.1,3.4
	c-0.1,0.2-0.1,0.2-0.3,0.2c-1.2,0-2.4,0-3.6,0C5.9,31.1,5.9,31.1,5.8,31.1z M12.2,24.1c1.5,0,3,0,4.5,0c0.2,0,0.3,0,0.2-0.2
	c-0.7-2.3-1.4-4.6-2.1-6.8c0-0.1,0-0.2-0.1-0.2C14.5,17,12.3,23.9,12.2,24.1z"/>
<path class="st0" d="M68.8,19.1c1.1-1.8,2.7-2.3,4.7-2.1c1,0.1,1.9,0.4,2.7,1.1c1,0.8,1.4,1.9,1.4,3.1c0,1.4,0,2.7,0,4.1
	c0,1.9,0,3.7,0,5.6c0,0.2-0.1,0.2-0.2,0.2c-1,0-2.1,0-3.1,0c-0.2,0-0.3-0.1-0.3-0.3c0-2.8,0-5.6,0-8.4c0-0.4,0-0.7-0.1-1.1
	c-0.2-0.6-0.6-1-1.2-1.2c-0.7-0.2-1.4-0.2-2.1,0.1c-1,0.4-1.5,1.2-1.6,2.2c0,0.3-0.1,0.6-0.1,0.9c0,2.5,0,4.9,0,7.4
	c0,0.3-0.1,0.3-0.3,0.3c-1,0-2,0-3.1,0c-0.2,0-0.2,0-0.2-0.2c0-6,0-12.1,0-18.1c0-0.2,0.1-0.2,0.2-0.2c1,0,2.1,0,3.1,0
	c0.2,0,0.2,0.1,0.2,0.2C68.8,14.9,68.8,17,68.8,19.1z"/>
<path class="st0" d="M88.3,25c-1.5,0-3,0-4.5,0c-0.3,0-0.3,0-0.3,0.3c0,0.4,0.1,0.8,0.3,1.2c0.4,1.1,1.3,1.6,2.4,1.7
	c0.6,0.1,1.3,0,1.9-0.2c0.5-0.2,0.8-0.5,1-1c0-0.1,0.1-0.1,0.2-0.1c1.2,0,2.3,0,3.5,0c0.2,0,0.2,0.1,0.1,0.2c-0.7,2.2-2.3,3.5-4.5,4
	c-1.4,0.3-2.9,0.2-4.3-0.2c-1.7-0.5-3-1.6-3.6-3.3c-0.8-2.2-0.9-4.5,0-6.7c0.8-2.2,2.4-3.3,4.7-3.7c1.2-0.2,2.5-0.2,3.7,0.2
	c2.1,0.6,3.4,2.1,4,4.2c0.3,1.1,0.4,2.2,0.4,3.3c0,0.2-0.1,0.2-0.2,0.2C91.4,25,89.8,25,88.3,25z M86.4,22.7c0.9,0,1.8,0,2.7,0
	c0.1,0,0.2,0,0.2-0.2c-0.2-1.6-1.2-2.6-2.7-2.7c-1,0-1.8,0.3-2.4,1.1c-0.3,0.4-0.4,0.9-0.5,1.5c-0.1,0.2,0,0.3,0.2,0.3
	C84.7,22.7,85.6,22.7,86.4,22.7z"/>
<path class="st0" d="M111.3,24.1c0-1.3,0.2-2.5,0.8-3.6c0.7-1.5,1.9-2.5,3.5-3.1c2-0.7,4-0.7,5.9,0.1c1.8,0.7,3,2.1,3.6,3.9
	c0.5,1.7,0.5,3.4,0,5.1c-0.6,2-1.9,3.4-3.9,4c-2.1,0.7-4.3,0.7-6.3-0.3c-2-0.9-3.1-2.6-3.5-4.7C111.3,25.1,111.3,24.6,111.3,24.1z
	 M121.7,24c0-0.4,0-0.8-0.1-1.2c-0.3-1.4-1-2.7-2.9-2.8c-1.6-0.1-2.9,0.5-3.4,2.2c-0.4,1.2-0.4,2.4-0.1,3.5c0.4,1.5,1.3,2.3,2.8,2.5
	c1.6,0.1,2.9-0.5,3.4-2.2C121.7,25.3,121.7,24.7,121.7,24z"/>
<path class="st0" d="M99.7,19.3c0.2-0.2,0.3-0.5,0.5-0.7c0.7-1,1.7-1.5,2.9-1.6c1-0.1,1.9,0,2.8,0.3c1.7,0.7,2.6,2,2.7,3.8
	c0.1,1.1,0,2.2,0,3.4c0,2.1,0,4.2,0,6.3c0,0.2,0,0.3-0.2,0.3c-1,0-2.1,0-3.1,0c-0.2,0-0.3-0.1-0.3-0.3c0-2.8,0-5.6,0-8.4
	c0-0.3,0-0.5-0.1-0.8c-0.2-1-0.9-1.6-2-1.6c-1.8-0.1-3.1,1.1-3.1,2.9c0,2,0,4,0,5.9c0,0.7,0,1.3,0,2c0,0.1,0,0.2-0.2,0.2
	c-1.1,0-2.2,0-3.3,0c-0.1,0-0.2,0-0.2-0.2c0,0,0-0.1,0-0.1c0-4.4,0-8.8,0-13.2c0-0.2,0.1-0.3,0.3-0.3c1,0,2,0,3,0
	c0.2,0,0.2,0.1,0.2,0.2C99.7,18.1,99.7,18.7,99.7,19.3C99.7,19.3,99.7,19.3,99.7,19.3z"/>
</svg>
