<?xml version="1.0" encoding="utf-8"?>
<!-- Generator: Adobe Illustrator 26.3.1, SVG Export Plug-In . SVG Version: 6.00 Build 0)  -->
<svg version="1.1" id="Layer_1" xmlns="http://www.w3.org/2000/svg" xmlns:xlink="http://www.w3.org/1999/xlink" x="0px" y="0px"
	 viewBox="0 0 127 48" style="enable-background:new 0 0 127 48;" xml:space="preserve">
<style type="text/css">
	.st0{fill:#64748B;}
</style>
<path class="st0" d="M27.3,20.6c0.1-1.6-0.2-3.5,0.3-5.3c1.2-4.9,5.6-8.1,10.8-7.9c4.8,0.2,9,4.1,9.5,8.9c0.3,3,0.1,5.9,0.1,8.9
	c0,0.5-0.1,1-0.3,1.5c-1.1,3.8-3.6,6.4-7.4,7.4c-0.6,0.2-0.7,0.4-0.5,0.9c0.9,2.8,3.3,4.1,6.2,3.3c0.6-0.2,1.2-0.4,1.8-0.8
	c0.3-0.2,0.5-0.2,0.7,0.1c0.6,0.8,0.6,0.8-0.2,1.4c-4,2.9-11.2,2.1-13-4.5c-0.1-0.4-0.3-0.5-0.6-0.6c-4.4-1.3-7.4-5.3-7.4-9.9
	C27.3,23,27.3,21.9,27.3,20.6z M44,21c0-1.5,0.1-2.9-0.1-4.3c-0.5-3.3-3.4-5.5-6.7-5.3c-3.1,0.2-5.7,2.8-5.7,6.1
	c-0.1,2.2-0.1,4.5,0,6.7c0.1,3.2,2.6,5.8,5.6,6.1c3.3,0.3,6.2-1.8,6.8-5C44.1,23.9,43.9,22.4,44,21z"/>
<path class="st0" d="M51.1,23c0.1-1.2-0.1-2.8,0.2-4.2c0.8-3.5,3.7-5.9,7.3-6.4c3.3-0.4,6.8,1.5,8.3,4.5c0.2,0.4,0.2,0.6-0.3,0.8
	c-0.8,0.3-1.7,0.6-2.5,0.9c-0.3,0.1-0.4,0.1-0.6-0.2c-1.2-2-3.3-2.8-5.3-2.2c-2.1,0.6-3.5,2.4-3.5,4.7c0,1.6,0,3.2,0,4.8
	c0,2.2,1.3,4,3.4,4.7c2,0.6,4.1-0.2,5.3-2.1c0.2-0.3,0.4-0.3,0.7-0.2c0.8,0.3,1.6,0.6,2.4,0.9c0.5,0.1,0.6,0.3,0.3,0.8
	c-2.6,5-9.5,6.1-13.4,2c-1.6-1.6-2.3-3.5-2.4-5.8C51.1,25,51.1,24.1,51.1,23z"/>
<path class="st0" d="M20.3,23.3c0-3.3,0-6.7,0-10c0-0.5,0.1-0.6,0.6-0.6c0.9,0,1.8,0,2.7,0c0.5,0,0.6,0.1,0.6,0.6c0,2.9,0,5.8,0,8.7
	c0,3.7,0,7.4,0,11.2c0,0.6-0.2,0.7-0.7,0.7c-0.9,0-1.7,0-2.6,0c-0.5,0-0.7-0.1-0.7-0.6C20.3,29.9,20.3,26.6,20.3,23.3z"/>
<path class="st0" d="M100.1,22.5c0.9-0.7,1.3-0.7,2.2-0.1c0.2,0.2,0.3,0,0.4-0.1c0.5-0.4,1.2-0.5,1.8-0.2c0.6,0.3,0.7,0.9,0.7,1.5
	c0,0.7,0,1.3,0,2c0,0.5-0.2,0.5-0.6,0.5c-0.3,0-0.6,0-0.6-0.5c0-0.6,0-1.2,0-1.8c0-0.4-0.2-0.8-0.7-0.8c-0.5,0-0.7,0.4-0.7,0.8
	c0,0.6,0,1.3,0,1.9c0,0.5-0.3,0.4-0.6,0.4c-0.3,0-0.6,0.1-0.6-0.4c0-0.6,0-1.2,0-1.8c0-0.5-0.1-0.9-0.7-0.9c-0.5,0-0.7,0.4-0.7,0.9
	c0,0.6,0,1.2,0,1.8c0,0.5-0.3,0.4-0.6,0.4c-0.3,0-0.6,0.1-0.6-0.4c0-1.1,0-2.1,0-3.2c0-0.3,0-0.5,0.4-0.5
	C99.6,22.1,100.1,21.8,100.1,22.5z"/>
<path class="st0" d="M76.3,23.5c0.1,1.2-0.2,2.1-1.4,2.6c-0.3,0.1-0.2,0.3-0.1,0.4c0.3,0.5,0.8,0.5,1.3,0.4c0.1,0,0.3-0.2,0.4,0
	c0.1,0.2-0.1,0.3-0.3,0.3c-0.8,0.4-1.8,0.1-2.2-0.7c-0.1-0.3-0.3-0.5-0.6-0.6c0,0-0.1,0-0.1-0.1c-0.9-0.6-1.1-1.4-1.1-2.4
	c0-1,0.1-1.9,1.1-2.4c1.3-0.8,3,0.1,3.1,1.7C76.3,22.9,76.3,23.2,76.3,23.5z M75.2,23.5c0-0.3,0-0.5,0-0.8c-0.1-0.5-0.4-0.8-0.9-0.8
	c-0.5,0-0.8,0.2-0.9,0.7c-0.1,0.6-0.1,1.2,0,1.7c0.1,0.5,0.5,0.7,0.9,0.7c0.5,0,0.8-0.3,0.9-0.8C75.2,24,75.2,23.7,75.2,23.5z"/>
<path class="st0" d="M85.3,24.7c0,0.3,0,0.5,0,0.8c0,0.2,0.1,0.5-0.1,0.6c-0.3,0.1-0.7,0.2-0.9,0c-0.2-0.2-0.3-0.1-0.4,0
	c-0.4,0.2-0.8,0.2-1.2,0.2c-0.6-0.1-0.9-0.4-1-1c-0.1-0.7,0.2-1.1,0.8-1.3c0.4-0.2,0.9-0.1,1.4-0.1c0.1,0,0.3,0.2,0.4,0
	c0.1-0.2-0.1-0.4-0.3-0.5c-0.4-0.2-0.8-0.2-1.2,0c-0.5,0.2-0.6-0.1-0.7-0.4c-0.2-0.5,0.2-0.4,0.5-0.5c0.3-0.1,0.7-0.1,1.1-0.1
	c1.2,0,1.8,0.6,1.8,1.8C85.3,24.1,85.3,24.4,85.3,24.7z M83.5,24.3c-0.4,0.1-0.8,0-0.8,0.6c0,0.4,0.3,0.5,0.6,0.5
	c0.4,0,0.8-0.2,0.8-0.7C84.2,24.2,83.8,24.5,83.5,24.3z"/>
<path class="st0" d="M97.9,24.1c0,0.5,0,1,0,1.5c0,0.2,0.1,0.5-0.2,0.5c-0.3,0-0.8,0.2-1-0.1c-0.2-0.3-0.2-0.1-0.4-0.1
	c-1.1,0.7-2.2,0.1-2.2-1.1c0-0.8,0-1.5,0-2.3c0-0.6,0.3-0.4,0.6-0.4c0.3,0,0.6,0,0.5,0.4c0,0.6,0,1.2,0,1.8c0,0.5,0.2,0.9,0.7,0.8
	c0.5,0,0.7-0.4,0.7-0.9c0-0.6,0-1.2,0-1.8c0-0.5,0.3-0.4,0.6-0.4c0.3,0,0.7-0.1,0.6,0.4C97.9,23,97.9,23.6,97.9,24.1z"/>
<path class="st0" d="M79.6,25.7c-0.6,0.6-1.1,0.7-1.8,0.4c-0.7-0.3-0.7-0.9-0.7-1.5c0-0.7,0-1.4,0-2.1c0-0.6,0.3-0.4,0.6-0.4
	c0.3,0,0.6,0,0.5,0.4c0,0.6,0,1.2,0,1.8c0,0.5,0.2,0.9,0.7,0.8c0.5,0,0.7-0.4,0.7-0.9c0-0.6,0-1.2,0-1.8c0-0.5,0.3-0.4,0.6-0.4
	c0.3,0,0.6-0.1,0.6,0.4c0,1.1,0,2.1,0,3.2c0,0.2,0.1,0.5-0.3,0.5C80.1,26.1,79.6,26.4,79.6,25.7z"/>
<path class="st0" d="M87.5,22.5c0.6-0.6,1.2-0.7,1.8-0.4C90,22.4,90,23,90,23.6c0,0.7,0,1.4,0,2.1c0,0.5-0.3,0.4-0.6,0.4
	c-0.3,0-0.6,0.1-0.6-0.4c0-0.6,0-1.2,0-1.8c0-0.5-0.1-0.9-0.7-0.9c-0.5,0-0.7,0.4-0.7,0.9c0,0.6,0,1.1,0,1.7c0,0.5-0.2,0.5-0.6,0.5
	c-0.4,0-0.6-0.1-0.6-0.6c0-1,0-2,0-3c0-0.2-0.2-0.6,0.3-0.6C86.9,22.1,87.4,21.8,87.5,22.5z"/>
<path class="st0" d="M80.3,32.1c0-0.4,0-0.8,0-1.2c0-0.1-0.1-0.4,0.2-0.4c0.2,0,0.5-0.1,0.6,0.1c0.2,0.4,0.3,0.1,0.4,0
	c0.5-0.3,1-0.3,1.4,0.1c0.2,0.2,0.3,0.2,0.5,0c0.4-0.4,0.9-0.4,1.5-0.2c0.5,0.2,0.6,0.7,0.6,1.2c0,0.6,0,1.2,0,1.8
	c0,0.3-0.1,0.4-0.4,0.4c-0.4,0-0.4-0.2-0.4-0.5c0-0.5,0-1,0-1.4c0-0.5-0.1-0.9-0.7-0.8c-0.5,0-0.7,0.4-0.7,0.9c0,0.5,0,1,0,1.5
	c0,0.3-0.1,0.4-0.4,0.4c-0.3,0-0.4-0.1-0.4-0.4c0-0.5,0-1,0-1.6c0-0.4-0.2-0.8-0.7-0.8c-0.5,0-0.7,0.3-0.7,0.8c0,0.5,0,1,0,1.6
	c0,0.3-0.1,0.4-0.4,0.4c-0.3,0-0.4-0.1-0.4-0.4C80.3,33.1,80.3,32.6,80.3,32.1z"/>
<path class="st0" d="M105.2,33.2c-0.2,0.1-0.5,0.3-0.7,0.4c-0.7,0.2-1.4-0.1-1.7-0.7c-0.3-0.6-0.2-1.5,0.2-2
	c0.5-0.5,1.3-0.6,1.9-0.2c0.1,0.1,0.3,0.4,0.4-0.1c0-0.2,0.4-0.1,0.6-0.1c0.3,0,0.2,0.3,0.2,0.4c0,0.8,0,1.5,0,2.3
	c0,1.1-0.6,1.7-1.7,1.7c-0.4,0-0.8-0.1-1.2-0.2c-0.2-0.1-0.4-0.1-0.3-0.4c0.1-0.2,0.2-0.4,0.5-0.2c0.3,0.2,0.7,0.3,1,0.2
	C105,34.2,105.3,33.9,105.2,33.2z M104.3,33c0.6,0,1-0.4,1-0.9c0-0.5-0.4-0.9-1-0.9c-0.5,0-1,0.4-1,0.9
	C103.4,32.6,103.8,33,104.3,33z"/>
<path class="st0" d="M87.1,33.5c0,0.4,0,0.7,0,0.9c0,0.3,0,0.5-0.4,0.5c-0.3,0-0.4-0.1-0.4-0.4c0-1.2,0-2.4,0-3.6
	c0-0.1-0.1-0.4,0.2-0.4c0.2,0,0.5-0.1,0.6,0.1c0.1,0.4,0.2,0.2,0.4,0.1c0.8-0.5,1.8-0.2,2.2,0.6c0.4,0.7,0.2,1.8-0.4,2.3
	C88.7,34.1,88,34.1,87.1,33.5z M89,32.2c0-0.6-0.4-1.1-1-1.1c-0.5,0-0.9,0.4-1,1c0,0.6,0.4,1.1,0.9,1.1C88.6,33.3,89,32.8,89,32.2z"
	/>
<path class="st0" d="M91.9,21c0.5-0.1,0.6,0.1,0.5,0.5c-0.1,0.4,0.1,0.6,0.5,0.5c0.5-0.1,0.4,0.2,0.4,0.5c0,0.4-0.1,0.5-0.5,0.4
	c-0.4-0.1-0.5,0.1-0.5,0.5c0,0.3,0,0.6,0,0.9c0,0.5,0.1,0.9,0.7,0.7c0.2,0,0.3,0,0.2,0.2c0,0.3,0.2,0.6-0.2,0.8
	c-0.9,0.5-1.8,0-1.9-1c0-0.5,0-0.9,0-1.4c0-0.3,0.2-0.6-0.4-0.7c-0.2,0-0.1-0.9,0.1-0.9c0.3-0.1,0.3-0.3,0.3-0.5
	C91.2,21.1,91.4,20.9,91.9,21z"/>
<path class="st0" d="M72.2,31.7c0-1.4,0.4-2.1,1.5-2.3c0.7-0.1,1.3,0.1,1.7,0.7c0.1,0.1,0.4,0.3,0.1,0.4c-0.2,0.1-0.4,0.4-0.7,0.1
	c-0.3-0.4-0.8-0.5-1.2-0.3c-0.5,0.2-0.6,0.7-0.6,1.2c0,0.3,0,0.5,0,0.8c0,0.4,0.2,0.8,0.6,0.9c0.4,0.2,0.7,0.1,1-0.2
	c0.1-0.1,0.2-0.3,0.3-0.2c0.2,0.1,0.4,0.1,0.5,0.3c0.1,0.2-0.1,0.3-0.2,0.4c-0.5,0.6-1.2,0.7-1.9,0.5c-0.7-0.2-1.1-0.7-1.2-1.4
	C72.2,32.2,72.2,31.9,72.2,31.7z"/>
<path class="st0" d="M77.7,34c-1,0-1.8-0.8-1.8-1.8c0-1,0.8-1.8,1.8-1.7c1,0,1.8,0.8,1.8,1.8C79.5,33.2,78.7,34,77.7,34z M77.8,33.3
	c0.6,0,1-0.5,1-1.1c0-0.6-0.4-1.1-1.1-1.1c-0.6,0-1,0.5-1,1.1C76.7,32.8,77.2,33.3,77.8,33.3z"/>
<path class="st0" d="M102.4,14.1c1,0,1.8,0.7,1.8,1.7c0,1-0.7,1.8-1.7,1.8c-1,0-1.8-0.7-1.8-1.7C100.6,14.9,101.4,14.1,102.4,14.1z
	 M102.4,16.9c0.6,0,1-0.4,1-1.1c0-0.6-0.4-1.1-1-1.1c-0.6,0-1,0.5-1,1.1C101.4,16.5,101.8,16.9,102.4,16.9z"/>
<path class="st0" d="M95,16.1c-0.2,0-0.5,0-0.7,0c-0.2,0-0.4-0.1-0.5,0.1c-0.1,0.2,0.1,0.4,0.2,0.5c0.4,0.3,0.8,0.3,1.2,0
	c0.3-0.2,0.5-0.2,0.6,0.1c0.2,0.3-0.1,0.4-0.3,0.5c-0.6,0.4-1.5,0.3-2-0.1c-0.6-0.5-0.8-1.4-0.5-2.1c0.3-0.7,0.9-1.1,1.7-1
	c0.8,0.1,1.5,1,1.4,1.8c0,0.2-0.1,0.2-0.3,0.2C95.7,16.1,95.4,16.1,95,16.1z M93.8,15.6c0.5,0,0.9,0,1.3,0c0.4,0,0.4-0.2,0.2-0.5
	c-0.2-0.3-0.4-0.5-0.8-0.4C94.1,14.8,93.9,15.1,93.8,15.6z"/>
<path class="st0" d="M89.3,17.1c-0.5,0.5-1,0.7-1.6,0.4c-0.6-0.3-0.6-0.8-0.6-1.3c0-0.5,0-1.1,0-1.6c0-0.3,0.2-0.4,0.4-0.4
	c0.3,0,0.4,0.1,0.4,0.4c0,0.5,0,1,0,1.5c0,0.5,0.1,0.9,0.7,0.9c0.6,0,0.7-0.4,0.7-0.9c0-0.4,0-0.9,0-1.3c0-0.3,0-0.5,0.4-0.5
	c0.4,0,0.4,0.2,0.4,0.5c0,0.8,0,1.7,0,2.5c0,0.2,0.1,0.4-0.3,0.4C89.5,17.5,89.2,17.6,89.3,17.1z"/>
<path class="st0" d="M73.9,15.8c0-0.4,0-0.9,0-1.3c0-0.1-0.1-0.3,0.2-0.3c0.2,0,0.5-0.1,0.6,0.1c0.1,0.4,0.3,0.1,0.4,0.1
	c0.8-0.5,1.8-0.1,1.9,0.9c0.1,0.7,0,1.4,0,2.1c0,0.3-0.2,0.3-0.4,0.3c-0.3,0-0.4-0.1-0.4-0.3c0-0.5,0-0.9,0-1.4c0-0.5,0-1-0.7-1
	c-0.5,0-0.8,0.3-0.8,1c0,0.5,0,0.9,0,1.4c0,0.3-0.1,0.4-0.4,0.4c-0.3,0-0.4-0.1-0.4-0.3C73.9,16.7,73.9,16.3,73.9,15.8z"/>
<path class="st0" d="M92.8,33.5c-0.4,0.3-0.6,0.5-1.1,0.5c-0.7,0-1.1-0.4-1.2-1.1c0-0.7,0-1.4,0-2.1c0-0.3,0.1-0.3,0.4-0.3
	c0.3,0,0.4,0.1,0.4,0.4c0,0.5,0,1,0,1.5c0,0.5,0.2,0.8,0.7,0.8c0.5,0,0.7-0.3,0.8-0.8c0-0.5,0-1,0-1.6c0-0.4,0.2-0.3,0.4-0.4
	c0.3,0,0.4,0.1,0.4,0.4c0,0.9,0,1.7,0,2.6c0,0.2,0.1,0.5-0.2,0.5C93,33.9,92.7,34,92.8,33.5z"/>
<path class="st0" d="M99.6,31c0.5-0.5,1-0.7,1.6-0.4c0.6,0.3,0.7,0.9,0.7,1.4c0,0.5,0,1,0,1.6c0,0.3-0.1,0.4-0.4,0.4
	c-0.3,0-0.4,0-0.4-0.4c0-0.5,0-1,0-1.6c0-0.5-0.2-0.8-0.7-0.8c-0.5,0-0.7,0.4-0.7,0.8c0,0.5,0,1,0,1.6c0,0.3-0.1,0.4-0.4,0.4
	c-0.3,0-0.4,0-0.4-0.4c0-0.9,0-1.8,0-2.6c0-0.2-0.1-0.4,0.2-0.4C99.3,30.5,99.7,30.4,99.6,31z"/>
<path class="st0" d="M98.7,16.2c0-0.3,0-0.5,0-0.8c0-0.1,0-0.2,0-0.3c0-0.3-0.6-0.3-0.4-0.7c0.1-0.3,0.4-0.4,0.5-0.8
	c0.1-0.7,0.8-1,1.4-0.8c0.3,0.1,0.2,0.3,0.2,0.5c0,0.2-0.1,0.2-0.3,0.2c-0.3-0.1-0.5,0.1-0.6,0.4c0,0.4,0.3,0.3,0.5,0.3
	c0.3,0,0.4,0.1,0.4,0.4c0,0.3-0.1,0.3-0.3,0.3c-0.5-0.1-0.5,0.2-0.5,0.6c0,0.6,0,1.2,0,1.8c0,0.3-0.1,0.4-0.4,0.4
	c-0.2,0-0.4,0-0.4-0.3C98.8,16.9,98.7,16.5,98.7,16.2z"/>
<path class="st0" d="M78.7,17.6c-0.3,0-0.7-0.1-1-0.3c-0.2-0.1-0.3-0.2-0.2-0.4c0.1-0.2,0.2-0.3,0.5-0.1c0.2,0.2,0.5,0.3,0.8,0.3
	c0.2,0,0.4-0.1,0.5-0.3c0-0.2-0.2-0.3-0.3-0.4c-0.3-0.1-0.5-0.2-0.8-0.3c-0.4-0.2-0.7-0.5-0.7-0.9c0-0.5,0.3-0.8,0.8-0.9
	c0.5-0.1,0.9,0,1.3,0.2c0.2,0.1,0.3,0.2,0.1,0.4c-0.1,0.1-0.1,0.4-0.4,0.2c-0.2-0.1-0.5-0.2-0.8-0.2c-0.2,0-0.3,0.1-0.4,0.3
	c0,0.2,0.1,0.3,0.2,0.3c0.2,0.1,0.4,0.2,0.6,0.2c0.7,0.3,1,0.6,0.8,1.2C79.9,17.3,79.4,17.6,78.7,17.6z"/>
<path class="st0" d="M91.9,17.6c-0.5,0-0.9-0.2-0.9-0.8c0-0.4,0-0.8,0-1.2c0-0.3,0.2-0.7-0.4-0.8c-0.1,0-0.1-0.3-0.1-0.5
	c0.7,0,0-1.1,0.8-1.1c0.3,0,0.5,0,0.4,0.4c-0.1,0.4,0.1,0.6,0.5,0.6c0.3,0,0.4,0.1,0.4,0.3c0,0.3-0.1,0.4-0.4,0.3
	c-0.5-0.1-0.6,0.2-0.5,0.6c0,0.3,0,0.7,0,1c0,0.3,0.1,0.4,0.4,0.4c0.2,0,0.5-0.2,0.5,0.2c0,0.4-0.3,0.4-0.5,0.5
	C92,17.6,92,17.6,91.9,17.6z"/>
<path class="st0" d="M95.7,34c-0.7,0-1-0.2-1.1-0.9c0-0.4,0-0.9,0-1.3c0-0.2,0.1-0.5-0.3-0.6c-0.2-0.1-0.2-0.5,0-0.6
	c0.4-0.1,0.3-0.3,0.3-0.6c0-0.3,0.1-0.4,0.4-0.4c0.4,0,0.4,0.2,0.4,0.5c-0.1,0.4,0.1,0.5,0.5,0.5c0.2,0,0.4,0,0.4,0.3
	c0,0.4-0.2,0.4-0.4,0.3c-0.4-0.1-0.5,0.1-0.5,0.5c0,0.3,0,0.6,0,0.9c0,0.5,0,0.8,0.6,0.7c0.1,0,0.3,0,0.2,0.2c0,0.2,0.1,0.3-0.1,0.4
	C96,33.9,95.8,34,95.7,34z"/>
<path class="st0" d="M81.9,17.6c-0.7,0-1-0.3-1.1-0.9c0-0.5,0-0.9,0-1.4c0-0.2,0.1-0.5-0.3-0.6c-0.3-0.1-0.2-0.5,0-0.6
	c0.3-0.1,0.3-0.3,0.3-0.6c0-0.3,0.1-0.4,0.4-0.4c0.3,0,0.4,0.1,0.4,0.4c-0.1,0.4,0.1,0.6,0.5,0.5c0.3,0,0.4,0.1,0.4,0.4
	c0,0.3-0.2,0.3-0.4,0.3c-0.4-0.1-0.5,0.1-0.5,0.5c0,0.3,0,0.5,0,0.8c0,0.4,0,0.8,0.6,0.7c0.1,0,0.3,0,0.3,0.2c0,0.2,0.1,0.4-0.1,0.4
	C82.1,17.6,81.9,17.6,81.9,17.6z"/>
<path class="st0" d="M85.3,13.2c0.2,0,0.4,0.1,0.3,0.4c0,0.4,0,0.6,0.5,0.5c0.3,0,0.4,0,0.4,0.4c0,0.4-0.2,0.4-0.4,0.3
	c-0.4-0.1-0.5,0.1-0.5,0.5c0,0.3,0,0.7,0,1c0,0.4,0.1,0.6,0.5,0.5c0.1,0,0.4-0.1,0.3,0.2c0,0.2,0,0.3-0.2,0.5
	c-0.7,0.3-1.4-0.1-1.4-0.8c0-0.4,0-0.9,0-1.3c0-0.2,0.1-0.5-0.3-0.6c-0.3-0.1-0.2-0.5-0.1-0.6c0.5-0.1,0.4-0.5,0.4-0.8
	C84.8,13.2,85.1,13.2,85.3,13.2z"/>
<path class="st0" d="M72.2,15.3c0-0.6,0-1.2,0-1.8c0-0.3,0.1-0.4,0.4-0.4c0.3,0,0.4,0.1,0.4,0.4c0,1.2,0,2.5,0,3.7
	c0,0.3-0.1,0.4-0.4,0.4c-0.3,0-0.4,0-0.4-0.4C72.2,16.5,72.2,15.9,72.2,15.3z"/>
<path class="st0" d="M105.5,14.7c0.2-0.2,0.4-0.4,0.6-0.5c0.2-0.1,0.4-0.3,0.5,0c0.1,0.2,0.2,0.6-0.2,0.7c-0.7,0.1-0.9,0.7-0.9,1.3
	c0,0.3,0,0.6,0,0.9c0,0.3,0,0.4-0.4,0.4c-0.3,0-0.4-0.1-0.4-0.4c0-0.8,0-1.6,0-2.4c0-0.2-0.2-0.6,0.3-0.6
	C105.5,14.1,105.5,14.3,105.5,14.7z"/>
<path class="st0" d="M83.1,15.8c0-0.4,0-0.8,0-1.3c0-0.3,0-0.4,0.4-0.4c0.4,0,0.4,0.1,0.4,0.4c0,0.9,0,1.7,0,2.6
	c0,0.3,0,0.4-0.4,0.4c-0.3,0-0.4-0.1-0.4-0.4C83.1,16.7,83.1,16.2,83.1,15.8z"/>
<path class="st0" d="M97.9,32.2c0,0.4,0,0.9,0,1.3c0,0.3-0.1,0.4-0.4,0.4c-0.3,0-0.4-0.1-0.4-0.4c0-0.9,0-1.8,0-2.7
	c0-0.3,0.1-0.3,0.4-0.3c0.3,0,0.4,0,0.4,0.4C97.8,31.3,97.9,31.8,97.9,32.2z"/>
<path class="st0" d="M97.4,29.3c0.3-0.1,0.5,0,0.5,0.4c0,0.3-0.2,0.3-0.4,0.4c-0.3,0-0.4-0.1-0.4-0.4C97.1,29.3,97.2,29.2,97.4,29.3
	z"/>
<path class="st0" d="M83.5,12.9c0.3-0.1,0.4,0.1,0.4,0.4c0,0.4-0.2,0.4-0.5,0.4c-0.3,0-0.4-0.1-0.4-0.4C83,12.9,83.2,12.8,83.5,12.9
	z"/>
</svg>
