<?xml version="1.0" encoding="utf-8"?>
<!-- Generator: Adobe Illustrator 26.3.1, SVG Export Plug-In . SVG Version: 6.00 Build 0)  -->
<svg version="1.1" id="Layer_1" xmlns="http://www.w3.org/2000/svg" xmlns:xlink="http://www.w3.org/1999/xlink" x="0px" y="0px"
	 viewBox="0 0 158 48" style="enable-background:new 0 0 158 48;" xml:space="preserve">
<style type="text/css">
	.st0{fill:#64748B;}
</style>
<path class="st0" d="M145.5,17.3c-0.2,0.1-0.2,0.4-0.2,0.6c-0.8,4-4.5,6.7-8.8,6.4c-3.8-0.3-6.5-2.4-7.5-5.8
	c-1.5-5.2,2.4-10.4,7.9-10.4c3.3,0,5.9,1.3,7.6,4.2c0.5,0.8,0.7,1.7,0.9,2.6c0,0.1,0,0.2,0.1,0.2C145.5,15.9,145.5,16.6,145.5,17.3z
	 M137.1,21.1c2.7,0,4.7-2.1,4.7-4.9c0-2.8-2.1-4.9-4.7-5c-2.6,0-4.7,2.1-4.7,4.9C132.3,19,134.4,21.1,137.1,21.1z"/>
<path class="st0" d="M45.5,39.9c-0.2-0.2-0.5-0.2-0.7-0.2c-2.7-0.7-4.5-3.1-4.2-5.8c0.3-2.9,2.5-5.1,5.3-5.2
	c1.6-0.1,3.1,0.2,4.4,1.1c0.4,0.3,0.6,0.5,0.1,0.9c-0.4,0.4-0.7,0.8-1,1.3c-0.2,0.3-0.4,0.4-0.8,0.1c-0.8-0.6-1.8-0.9-2.8-0.7
	c-1.4,0.3-2.3,1.6-2.1,3.2c0.1,1.4,1.2,2.5,2.5,2.6c0.6,0.1,1.2,0,1.7-0.2c0.2-0.1,0.4-0.2,0.4-0.5c0-0.9,0-0.9-0.9-0.9
	c-1.2,0-1.2,0-1.2-1.2c0-1,0-1,1-1c1.2,0,2.3,0,3.5,0c0.5,0,0.6,0.1,0.6,0.6c0,1.3,0,2.6,0,3.9c0,0.3-0.1,0.5-0.4,0.7
	c-1,0.7-2,1.1-3.2,1.3c-0.1,0-0.3,0-0.3,0.1C46.8,39.9,46.1,39.9,45.5,39.9z"/>
<path class="st0" d="M139,39.9c-0.2-0.2-0.6-0.2-0.9-0.2c-2.9-0.7-4.5-3.1-4.3-6.2c0.2-2.6,2.6-4.7,5.2-4.9c1.6-0.1,3.2,0.2,4.6,1.2
	c0.4,0.3,0.4,0.5,0.1,0.8c-0.4,0.4-0.7,0.8-1,1.3c-0.3,0.3-0.4,0.4-0.9,0.1c-0.8-0.6-1.8-0.9-2.8-0.6c-1.3,0.3-2.2,1.6-2.1,3.1
	c0.1,1.5,1.1,2.6,2.5,2.7c0.6,0.1,1.2,0,1.7-0.2c0.3-0.1,0.4-0.2,0.4-0.5c0-0.9,0-0.9-0.9-0.9c-1.2,0-1.2,0-1.2-1.2
	c0-1.1,0-1.1,1.1-1.1c1.1,0,2.2,0,3.4,0c0.4,0,0.6,0.1,0.6,0.5c0,1.3,0,2.6,0,3.9c0,0.3-0.1,0.5-0.4,0.7c-1,0.7-2,1.1-3.2,1.3
	c-0.1,0-0.3,0-0.3,0.1C140.1,39.9,139.5,39.9,139,39.9z"/>
<path class="st0" d="M24.4,14c-1.1,3.2-2.2,6.4-3.3,9.6c-0.1,0.4-0.3,0.6-0.7,0.5c-0.7,0-1.4,0-2.1,0c-0.3,0-0.4-0.1-0.5-0.4
	c-1.7-5.1-3.4-10.1-5.2-15.2c0,0,0-0.1,0-0.2c1.1,0,2.3,0,3.4,0c0.4,0,0.3,0.3,0.4,0.5c1,3.1,1.9,6.2,2.8,9.3
	c0.1,0.2,0.1,0.3,0.2,0.6c0.3-0.8,0.5-1.4,0.7-2.1c0.9-2.6,1.7-5.2,2.6-7.8c0.1-0.4,0.3-0.5,0.7-0.5c0.7,0,1.3,0,2,0
	c0.4,0,0.6,0.1,0.8,0.5c1,3.1,2,6.1,3,9.1c0.1,0.2,0.1,0.4,0.3,0.6c0.6-1.9,1.2-3.8,1.8-5.7c0.4-1.4,0.9-2.8,1.3-4.2
	c0.1-0.3,0.2-0.4,0.6-0.4c0.9,0,1.8,0,2.7,0c0.3,0,0.5,0,0.3,0.4c-1.7,5-3.4,10-5.1,15c-0.1,0.3-0.2,0.4-0.5,0.4c-0.7,0-1.4,0-2.1,0
	c-0.4,0-0.6-0.1-0.8-0.6c-1-3.1-2.1-6.1-3.2-9.2C24.5,14.2,24.5,14.1,24.4,14z"/>
<path class="st0" d="M92,18.5c1.3,1.8,2.5,3.7,3.8,5.6c-1.4,0-2.6,0-3.9,0c-0.3,0-0.4-0.2-0.5-0.4c-1-1.4-1.9-2.8-2.8-4.2
	c-0.2-0.3-0.4-0.4-0.7-0.4c-0.6,0-1.2,0-1.8,0c-0.3,0-0.4,0.1-0.4,0.4c0,1.4,0,2.7,0,4.1c0,0.5-0.2,0.6-0.6,0.6c-0.7,0-1.5,0-2.3,0
	c-0.5,0-0.7-0.1-0.7-0.7c0-4.6,0-9.3,0-13.9c0-1.2,0-1.2,1.2-1.2c2.1,0,4.1,0,6.2,0c1.2,0,2.4,0.2,3.4,0.8c1.9,1.1,2.4,2.8,2.4,4.8
	c-0.1,1.9-1,3.3-2.7,4.2C92.4,18.3,92.2,18.4,92,18.5z M85.6,13.7c0,0.6,0,1.3,0,1.9c0,0.2,0,0.4,0.3,0.3c1.3-0.1,2.7,0.1,4-0.1
	c1.1-0.2,1.8-1,1.8-2.1c0-1.2-0.6-2-1.7-2.2c-1.4-0.3-2.7-0.1-4.1-0.1c-0.3,0-0.2,0.2-0.2,0.4C85.6,12.5,85.6,13.1,85.6,13.7z"/>
<path class="st0" d="M110.5,16.2c0-4.7,3.6-8.1,8.6-8.1c4.6,0,8.2,3.5,8.2,8.1c0,4.6-3.7,8.2-8.4,8.2
	C114,24.3,110.5,20.8,110.5,16.2z M114.1,16.2c0,2.8,2,4.9,4.7,4.9c2.7,0,4.7-2.1,4.7-4.9c0-2.8-2-5-4.7-5
	C116.2,11.2,114.1,13.4,114.1,16.2z"/>
<path class="st0" d="M66.4,16.2c0-2.4,0-4.9,0-7.3c0-0.4,0.1-0.5,0.5-0.5c3.6,0,7.3,0,10.9,0c0.4,0,0.5,0.1,0.5,0.5
	c0,0.7,0,1.4,0,2.1c0,0.4-0.1,0.5-0.5,0.5c-2.4,0-4.9,0-7.3,0c-0.5,0-0.6,0.1-0.6,0.6c0,0.7,0,1.4,0,2.1c0,0.4,0.1,0.5,0.5,0.5
	c2.1,0,4.1,0,6.2,0c0.6,0,0.8,0.2,0.7,0.8c-0.1,0.6,0,1.3,0,1.9c0,0.4-0.1,0.5-0.5,0.5c-2.1,0-4.3,0-6.4,0c-0.5,0-0.6,0.1-0.6,0.6
	c0,0.7,0,1.5,0,2.2c0,0.4,0.1,0.5,0.5,0.5c2.5,0,5,0,7.4,0c0.5,0,0.6,0.1,0.6,0.6c0,0.7,0,1.4,0,2.1c0,0.3-0.1,0.4-0.4,0.4
	c-3.7,0-7.5,0-11.2,0c-0.5,0-0.4-0.3-0.4-0.5C66.4,21.1,66.4,18.6,66.4,16.2z"/>
<path class="st0" d="M49.9,24.1c-0.5,0-1.2,0.2-1.7-0.1c-0.4-0.3-0.5-1-0.7-1.6c-0.2-0.4-0.4-0.9-0.6-1.3c-0.1-0.4-0.3-0.5-0.7-0.5
	c-1.9,0-3.7,0-5.6,0c-0.4,0-0.6,0.1-0.7,0.5c-0.3,0.9-0.7,1.8-1.1,2.6c-0.1,0.3-0.3,0.4-0.6,0.4c-0.8,0-1.6,0-2.4,0
	c-0.7,0-0.7,0-0.4-0.6c1.6-3.6,3.1-7.3,4.7-10.9c0.5-1.2,1.1-2.5,1.6-3.7c0.1-0.4,0.3-0.5,0.7-0.5c0.8,0,1.6,0,2.4,0
	c0.3,0,0.4,0.1,0.5,0.4c2.1,5,4.2,10,6.4,14.9c0.2,0.4,0.1,0.5-0.3,0.5C50.9,24,50.4,24.1,49.9,24.1z M45.4,17.4
	c-0.7-1.7-1.3-3.3-2-5c-0.7,1.7-1.4,3.3-2,5C42.7,17.4,44,17.4,45.4,17.4z"/>
<path class="st0" d="M57.3,8.3c2,0,4,0,6,0c0.4,0,0.5,0.1,0.5,0.5c0,0.7,0,1.5,0,2.2c0,0.4-0.1,0.5-0.5,0.5c-1.2,0-2.4,0-3.7,0
	c-0.5,0-0.6,0.1-0.6,0.6c0,3.8,0,7.5,0,11.3c0,0.5-0.2,0.7-0.6,0.6c-0.7,0-1.5,0-2.3,0c-0.5,0-0.6-0.1-0.6-0.6c0-3.8,0-7.5,0-11.3
	c0-0.5-0.1-0.6-0.6-0.6c-1.2,0-2.5,0-3.7,0c-0.3,0-0.5-0.1-0.5-0.4c0-0.8,0-1.5,0-2.3c0-0.4,0.1-0.5,0.5-0.5
	C53.3,8.3,55.3,8.3,57.3,8.3z"/>
<path class="st0" d="M68.9,34.3c0-1.6,0-3.2,0-4.8c0-0.6,0.2-0.7,0.7-0.6c0.6,0,1.3,0,1.9,0c0.3,0,0.4,0.1,0.4,0.4c0,3.3,0,6.7,0,10
	c0,0.3-0.1,0.4-0.4,0.4c-0.7,0-1.3,0-2,0c-0.3,0-0.5-0.2-0.6-0.4c-1.4-1.8-2.8-3.5-4.2-5.3c-0.2,0.1-0.1,0.3-0.1,0.4
	c0,1.6,0,3.1,0,4.7c0,0.5-0.2,0.7-0.6,0.6c-0.6,0-1.3,0-1.9,0c-0.4,0-0.5-0.1-0.5-0.5c0-3.3,0-6.6,0-9.9c0-0.3,0.1-0.5,0.4-0.5
	c0,0,0,0,0.1,0c0.8,0,1.6-0.2,2.3,0.1c0.7,0.3,1,1.1,1.5,1.7c1,1.2,1.9,2.4,2.9,3.7C68.9,34.3,68.9,34.3,68.9,34.3z"/>
<path class="st0" d="M30.3,33.8c0,1.9,0,3.6,0,5.2c0,0.5-0.1,0.7-0.6,0.6c-0.6,0-1.3,0-1.9,0c-0.4,0-0.5-0.1-0.5-0.5
	c0-3.3,0-6.6,0-9.8c0-0.4,0.1-0.5,0.5-0.5c0.8,0,1.6-0.2,2.3,0.1c0.7,0.3,1,1.1,1.5,1.7c1,1.2,1.9,2.5,3,3.8c0-1.1,0-2,0-3
	c0-0.7,0-1.5,0-2.2c0-0.3,0.1-0.5,0.4-0.5c0.7,0,1.4,0,2.1,0c0.3,0,0.4,0,0.4,0.4c0,3.3,0,6.7,0,10c0,0.3-0.1,0.4-0.4,0.4
	c-0.5,0-1.1,0-1.6,0c-0.4,0-0.7-0.1-1-0.5C33.2,37.4,31.8,35.7,30.3,33.8z"/>
<path class="st0" d="M124,33.8c0,1.3,0,2.4,0,3.6c0,0.7,0.3,1.7-0.1,2.1c-0.5,0.5-1.4,0.1-2.2,0.1c-0.1,0-0.2,0-0.3,0
	c-0.3,0-0.4-0.1-0.4-0.4c0-3.3,0-6.7,0-10c0-0.3,0.1-0.4,0.4-0.4c0.1,0,0.1,0,0.2,0c0.8,0,1.6-0.2,2.2,0.1c0.6,0.3,1,1.1,1.4,1.7
	c1,1.2,1.9,2.5,2.9,3.7c0.2-0.2,0.1-0.4,0.1-0.6c0-1.5,0-3,0-4.4c0-0.3,0.1-0.5,0.5-0.5c0.7,0,1.4,0,2.1,0c0.3,0,0.4,0,0.4,0.4
	c0,3.3,0,6.7,0,10c0,0.3-0.1,0.5-0.4,0.4c0,0,0,0-0.1,0c-1.5,0.3-2.6-0.2-3.5-1.6c-0.8-1.3-1.9-2.4-2.8-3.6
	C124.3,34.3,124.2,34.1,124,33.8z"/>
<path class="st0" d="M110.6,39.6c-1.2,0-2.2,0-3.2,0c-0.3,0-0.4-0.2-0.5-0.4c-0.6-0.8-1.1-1.6-1.7-2.5c-0.2-0.4-1.1-0.6-1.4-0.4
	c-0.2,0.1-0.1,0.3-0.1,0.4c0,0.8,0,1.5,0,2.3c0,0.4-0.1,0.6-0.5,0.5c-0.7,0-1.4,0-2.1,0c-0.4,0-0.5-0.1-0.5-0.5c0-3.3,0-6.6,0-9.9
	c0-0.3,0.1-0.4,0.4-0.4c1.8,0,3.7,0,5.5,0c2.8,0.1,4.4,2.4,3.5,5c-0.3,0.8-0.9,1.5-1.6,1.9c-0.3,0.2-0.3,0.3-0.1,0.5
	C109,37.3,109.7,38.4,110.6,39.6z M103.6,32.6c0,0.3,0,0.6,0,1c0,0.2,0,0.4,0.3,0.4c0.7,0,1.5,0,2.2-0.1c0.7-0.1,1.1-0.6,1-1.2
	c0-0.6-0.4-1-1-1.2c-0.4-0.1-0.9-0.1-1.3-0.1C103.6,31.4,103.6,31.4,103.6,32.6z"/>
<path class="st0" d="M99.1,16.2c0-2.4,0-4.9,0-7.3c0-0.5,0.1-0.6,0.6-0.6c0.8,0,1.6,0,2.4,0c0.4,0,0.5,0.1,0.5,0.5
	c0,3.8,0,7.6,0,11.4c0,0.5,0.1,0.6,0.6,0.6c2.1,0,4.2,0,6.3,0c0.4,0,0.5,0.1,0.5,0.5c0,0.7,0,1.5,0,2.2c0,0.3-0.1,0.5-0.4,0.5
	c-3.3,0-6.7,0-10,0c-0.4,0-0.5-0.2-0.4-0.5C99.1,21.1,99.1,18.6,99.1,16.2z"/>
<path class="st0" d="M14.9,34.2c0-1.6,0-3.2,0-4.9c0-0.4,0.1-0.6,0.5-0.5c2.6,0,5.2,0,7.7,0c0.4,0,0.5,0.1,0.5,0.5
	c-0.1,0.7,0.3,1.5-0.1,2c-0.4,0.4-1.2,0.1-1.9,0.1c-1.1,0-2.2,0-3.3,0c-0.3,0-0.4,0.1-0.4,0.4c0,1.2,0,1.2,1.1,1.2
	c1.2,0,2.4,0,3.5,0c0.5,0,0.6,0.2,0.6,0.6c0,0.4,0,0.9,0,1.3c0,0.4-0.1,0.5-0.5,0.5c-1.4,0-2.8,0-4.1,0c-0.5,0-0.6,0.1-0.6,0.6
	c0,1.1,0,1.1,1.2,1.1c1.4,0,2.8,0,4.2,0c0.4,0,0.5,0.1,0.5,0.5c0,0.6,0,1.1,0,1.7c0,0.3-0.1,0.4-0.4,0.4c-2.7,0-5.4,0-8,0
	c-0.4,0-0.4-0.2-0.4-0.5C14.9,37.5,14.9,35.9,14.9,34.2z"/>
<path class="st0" d="M88.2,34.2c0-1.6,0-3.2,0-4.9c0-0.4,0.1-0.5,0.5-0.5c2.6,0,5.1,0,7.7,0c0.4,0,0.6,0.1,0.5,0.5
	c-0.1,0.7,0.3,1.5-0.1,1.9c-0.4,0.4-1.2,0.1-1.9,0.1c-1.1,0-2.2,0-3.3,0c-0.3,0-0.4,0.1-0.5,0.4c0,1.2,0,1.2,1.1,1.2
	c1.2,0,2.4,0,3.7,0c0.4,0,0.5,0.1,0.5,0.5c0,0.5,0,1,0,1.5c0,0.4-0.1,0.5-0.5,0.5c-1.4,0-2.8,0-4.2,0c-0.4,0-0.5,0.1-0.5,0.5
	c0,1.2,0,1.2,1.2,1.2c1.4,0,2.8,0,4.1,0c0.4,0,0.5,0.1,0.5,0.5c0,0.6,0,1.1,0,1.7c0,0.3-0.1,0.4-0.4,0.4c-2.7,0-5.4,0-8.1,0
	c-0.4,0-0.4-0.3-0.4-0.5C88.2,37.5,88.2,35.9,88.2,34.2z"/>
<path class="st0" d="M75.8,34.3c0-1.6,0-3.3,0-4.9c0-0.4,0.1-0.5,0.5-0.5c2.6,0,5.2,0,7.7,0c0.4,0,0.6,0.1,0.5,0.6c0,0.5,0,1,0,1.5
	c0,0.4-0.1,0.5-0.5,0.5c-1.6,0-3.1,0-4.7,0c-0.5,0-0.6,0.1-0.6,0.6c0,1,0,1,1,1c1.2,0,2.5,0,3.7,0c0.4,0,0.5,0.1,0.5,0.5
	c0,0.5,0,1,0,1.5c0,0.4-0.1,0.5-0.5,0.5c-1.4,0-2.8,0-4.1,0c-0.4,0-0.5,0.1-0.5,0.5c0,1.2,0,1.2,1.1,1.2c1.4,0,2.8,0,4.2,0
	c0.4,0,0.6,0.1,0.5,0.5c0,0.5,0,1.1,0,1.6c0,0.4-0.1,0.5-0.5,0.5c-2.6,0-5.3,0-7.9,0c-0.4,0-0.5-0.1-0.5-0.5
	C75.8,37.5,75.8,35.9,75.8,34.3z"/>
<path class="st0" d="M113.9,34.2c0-1.6,0-3.2,0-4.8c0-0.4,0.1-0.6,0.6-0.6c0.7,0,1.4,0,2.1,0c0.4,0,0.4,0.1,0.4,0.5
	c0,3.3,0,6.6,0,9.9c0,0.4-0.1,0.5-0.5,0.5c-0.7,0-1.4,0-2.1,0c-0.4,0-0.5-0.1-0.5-0.5C113.9,37.5,113.9,35.9,113.9,34.2z"/>
<path class="st0" d="M54.8,34.2c0-1.6,0-3.2,0-4.9c0-0.4,0.1-0.5,0.5-0.5c0.7,0,1.4,0,2.1,0c0.3,0,0.4,0.1,0.4,0.4
	c0,3.4,0,6.7,0,10.1c0,0.2-0.1,0.4-0.3,0.4c-0.8,0-1.5,0-2.3,0c-0.4,0-0.4-0.3-0.4-0.5C54.8,37.5,54.8,35.8,54.8,34.2z"/>
</svg>
